<?xml version="1.0" encoding="UTF-8" standalone="no"?>
<!-- Created with Inkscape (http://www.inkscape.org/) -->

<svg
   xmlns:osb="http://www.openswatchbook.org/uri/2009/osb"
   xmlns:dc="http://purl.org/dc/elements/1.1/"
   xmlns:cc="http://creativecommons.org/ns#"
   xmlns:rdf="http://www.w3.org/1999/02/22-rdf-syntax-ns#"
   xmlns:svg="http://www.w3.org/2000/svg"
   xmlns="http://www.w3.org/2000/svg"
   xmlns:sodipodi="http://sodipodi.sourceforge.net/DTD/sodipodi-0.dtd"
   xmlns:inkscape="http://www.inkscape.org/namespaces/inkscape"
   width="744.09448819"
   height="1052.3622047"
   id="svg2"
   version="1.1"
   inkscape:version="0.48.4 r9939"
   sodipodi:docname="fish3.svg">
  <defs
     id="defs4">
    <linearGradient
       id="linearGradient5267"
       osb:paint="solid">
      <stop
         style="stop-color:#3d5ac8;stop-opacity:1;"
         offset="0"
         id="stop5269" />
    </linearGradient>
  </defs>
  <sodipodi:namedview
     id="base"
     pagecolor="#ffffff"
     bordercolor="#666666"
     borderopacity="1.0"
     inkscape:pageopacity="0.0"
     inkscape:pageshadow="2"
     inkscape:zoom="1.75"
     inkscape:cx="239.31112"
     inkscape:cy="545.17143"
     inkscape:document-units="px"
     inkscape:current-layer="layer1"
     showgrid="false"
     inkscape:window-width="1280"
     inkscape:window-height="741"
     inkscape:window-x="0"
     inkscape:window-y="27"
     inkscape:window-maximized="1" />
  <metadata
     id="metadata7">
    <rdf:RDF>
      <cc:Work
         rdf:about="">
        <dc:format>image/svg+xml</dc:format>
        <dc:type
           rdf:resource="http://purl.org/dc/dcmitype/StillImage" />
        <dc:title></dc:title>
      </cc:Work>
    </rdf:RDF>
  </metadata>
  <g
     inkscape:label="Layer 1"
     inkscape:groupmode="layer"
     id="layer1">
    <path
       style="opacity:1;fill:#e3dbdb;fill-opacity:1;stroke:#000000;stroke-width:1;stroke-linecap:butt;stroke-linejoin:miter;stroke-opacity:1;stroke-miterlimit:4;stroke-dasharray:none"
       d="m 158.19503,451.30799 c -28.00008,26.17911 -36.1015,56.76789 -20.88857,58.33093 -13.52508,8.69363 -3.45416,34.76335 33.76682,57.16021 37.22099,22.39686 145.49279,-17.87729 171.31182,-47.20184 13.87993,44.07339 33.51671,29.00985 51.44459,41.98923 -17.69309,-59.85798 -21.08566,-72.68152 -1.68987,-130.42918 -17.86671,19.90544 -39.59856,0.0978 -51.63879,41.88356 -90.02855,-61.47679 -154.30592,-47.91203 -182.306,-21.73291 z"
       id="path3791-7"
       inkscape:connector-curvature="0"
       sodipodi:nodetypes="zczccccz" />
    <path
       sodipodi:type="arc"
       style="color:#000000;fill:#b7c4c8;fill-opacity:1;fill-rule:nonzero;stroke:none;stroke-width:1.89999998;marker:none;visibility:visible;display:inline;overflow:visible;enable-background:accumulate"
       id="path3793-8"
       sodipodi:cx="285.30307"
       sodipodi:cy="464.01892"
       sodipodi:rx="13.585861"
       sodipodi:ry="13.208476"
       d="m 298.88893,464.01892 a 13.585861,13.208476 0 1 1 -27.17172,0 13.585861,13.208476 0 1 1 27.17172,0 z"
       transform="matrix(1.0977877,0,0,1.0687582,-132.02123,-39.055886)" />
    <path
       style="fill:#ffffff;fill-opacity:1;stroke:#000000;stroke-width:1.3;stroke-linecap:butt;stroke-linejoin:miter;stroke-miterlimit:4;stroke-opacity:1;stroke-dasharray:1.3,2.6;stroke-dashoffset:0"
       d="m 168.68627,466.77808 c -16.46638,15.3955 -39.65174,41.93688 -30.70527,42.85608 -7.95387,5.11258 16.38972,21.10165 38.27876,34.27288 21.88905,13.17122 85.56191,-10.51334 100.74566,-27.75863 8.16255,25.91884 22.3422,13.77074 32.88529,21.4037 -10.40502,-35.20149 -15.03171,-48.66385 -3.62537,-82.6243 -10.50711,11.70606 -28.55041,-7.83724 -35.63107,16.73629 -52.94431,-36.15348 -85.48161,-20.28153 -101.948,-4.88602 z"
       id="path3791-7-3"
       inkscape:connector-curvature="0"
       sodipodi:nodetypes="zczccccz" />
    <path
       style="fill:#e3dbdb;fill-opacity:1;stroke:#000000;stroke-width:0.5555855;stroke-linecap:butt;stroke-linejoin:miter;stroke-miterlimit:4;stroke-opacity:1;stroke-dasharray:none"
       d="m 169.77371,471.31505 c -15.55644,14.54473 -20.05747,31.53942 -11.60538,32.40782 -7.51434,4.83005 -1.91909,19.31402 18.76035,31.75739 20.67944,12.44337 80.83368,-9.93237 95.17836,-26.22467 7.71149,24.48655 18.6214,16.11746 28.58187,23.32862 -9.83003,-33.25623 -11.71489,-40.38081 -0.93887,-72.46457 -9.92648,11.05918 -22.00038,0.0543 -28.68976,23.2699 -50.01856,-34.15561 -85.73013,-26.61923 -101.28657,-12.07449 z"
       id="path3791-7-4"
       inkscape:connector-curvature="0"
       sodipodi:nodetypes="zczccccz" />
    <path
       sodipodi:type="arc"
       style="color:#000000;fill:#b7c4c8;fill-opacity:1;fill-rule:nonzero;stroke:none;stroke-width:1.89999998;marker:none;visibility:visible;display:inline;overflow:visible;enable-background:accumulate"
       id="path3793"
       sodipodi:cx="285.30307"
       sodipodi:cy="464.01892"
       sodipodi:rx="13.585861"
       sodipodi:ry="13.208476"
       d="m 298.88893,464.01892 a 13.585861,13.208476 0 1 1 -27.17172,0 13.585861,13.208476 0 1 1 27.17172,0 z"
       transform="matrix(0.48816805,0,0,0.48816805,42.400304,247.28144)" />
    <path
       style="fill:#ffffff;fill-opacity:1;stroke:#000000;stroke-width:0.72226107;stroke-linecap:butt;stroke-linejoin:miter;stroke-miterlimit:4;stroke-opacity:1;stroke-dasharray:0.72226112, 1.44452225;stroke-dashoffset:0"
       d="m 175.60249,479.91001 c -9.14848,8.55351 -22.02993,23.29952 -17.0594,23.81021 -4.41905,2.84048 9.10589,11.72378 21.26712,19.04152 12.16124,7.31774 47.53696,-5.84106 55.97283,-15.42229 6.6753,-7.08203 4.38099,-17.69236 -3.53972,-24.71484 -29.41509,-20.08635 -47.49234,-11.26812 -56.64083,-2.7146 z"
       id="path3791-7-3-2"
       inkscape:connector-curvature="0"
       sodipodi:nodetypes="zczccz" />
    <g
       id="g5369"
       transform="translate(87.167795,81.546378)">
      <path
         sodipodi:nodetypes="zzzzz"
         inkscape:connector-curvature="0"
         id="path2985-2"
         d="m 105.96937,398.38124 c -5.27687,6.38779 -11.10919,2.22184 -10.55373,14.44195 0.55545,12.22011 1.48744,-0.4194 9.44281,13.33103 7.95538,13.75043 16.34833,2.71981 17.21925,-3.33276 0.87093,-6.05257 -10.83146,-30.82801 -16.10833,-24.44022 z"
         style="fill:#ff0066;stroke:#000000;stroke-width:0.92751926;stroke-linecap:butt;stroke-linejoin:miter;stroke-miterlimit:4;stroke-opacity:1;stroke-dasharray:none" />
      <path
         sodipodi:nodetypes="ccscsccccc"
         inkscape:connector-curvature="0"
         id="path2985"
         d="m 109.37287,405.52908 c -0.10146,0.003 -0.20547,0.0145 -0.30389,0.0362 3.36207,4.22286 6.71396,15.98775 6.24672,19.46751 -0.43545,3.24295 -2.915,6.49204 -5.9991,5.81371 4.61734,3.7025 8.06555,-1.81253 10.51249,-5.16239 2.17608,-2.97905 -3.64843,-23.48063 -7.89015,-23.3626 z m -8.46401,17.28434 c 0.34976,0.67156 0.85245,0.85846 1.49696,1.09761 -0.55622,-0.53057 -1.05679,-0.86365 -1.49696,-1.09761 z"
         style="fill:#d40055;stroke:none" />
      <path
         inkscape:connector-curvature="0"
         id="path3787"
         d="m 103.2984,407.40591 c 0,0 -11.54729,3.8491 -3.52834,7.37744 8.01896,3.52834 6.73593,7.37744 6.73593,7.37744 l 0.96228,-10.58503 z"
         style="fill:#ff80b2;stroke:none" />
    </g>
  </g>
</svg>
