<?xml version="1.0" encoding="UTF-8" standalone="no"?>
<!-- Created with Inkscape (http://www.inkscape.org/) -->

<svg
   xmlns:osb="http://www.openswatchbook.org/uri/2009/osb"
   xmlns:dc="http://purl.org/dc/elements/1.1/"
   xmlns:cc="http://creativecommons.org/ns#"
   xmlns:rdf="http://www.w3.org/1999/02/22-rdf-syntax-ns#"
   xmlns:svg="http://www.w3.org/2000/svg"
   xmlns="http://www.w3.org/2000/svg"
   xmlns:sodipodi="http://sodipodi.sourceforge.net/DTD/sodipodi-0.dtd"
   xmlns:inkscape="http://www.inkscape.org/namespaces/inkscape"
   width="744.09448819"
   height="1052.3622047"
   id="svg2"
   version="1.1"
   inkscape:version="0.48.4 r9939"
   sodipodi:docname="New document 1">
  <defs
     id="defs4">
    <linearGradient
       id="linearGradient5267"
       osb:paint="solid">
      <stop
         style="stop-color:#3d5ac8;stop-opacity:1;"
         offset="0"
         id="stop5269" />
    </linearGradient>
  </defs>
  <sodipodi:namedview
     id="base"
     pagecolor="#ffffff"
     bordercolor="#666666"
     borderopacity="1.0"
     inkscape:pageopacity="0.0"
     inkscape:pageshadow="2"
     inkscape:zoom="1.33"
     inkscape:cx="273.39349"
     inkscape:cy="616.66162"
     inkscape:document-units="px"
     inkscape:current-layer="layer1"
     showgrid="false"
     inkscape:window-width="1280"
     inkscape:window-height="741"
     inkscape:window-x="0"
     inkscape:window-y="27"
     inkscape:window-maximized="1" />
  <metadata
     id="metadata7">
    <rdf:RDF>
      <cc:Work
         rdf:about="">
        <dc:format>image/svg+xml</dc:format>
        <dc:type
           rdf:resource="http://purl.org/dc/dcmitype/StillImage" />
        <dc:title></dc:title>
      </cc:Work>
    </rdf:RDF>
  </metadata>
  <g
     inkscape:label="Layer 1"
     inkscape:groupmode="layer"
     id="layer1">
    <g
       id="g5369"
       transform="translate(199.0099,-9.9009901)">
      <path
         sodipodi:nodetypes="zzzzz"
         inkscape:connector-curvature="0"
         id="path2985-2"
         d="m 105.96937,398.38124 c -5.27687,6.38779 -11.10919,2.22184 -10.55373,14.44195 0.55545,12.22011 1.48744,-0.4194 9.44281,13.33103 7.95538,13.75043 16.34833,2.71981 17.21925,-3.33276 0.87093,-6.05257 -10.83146,-30.82801 -16.10833,-24.44022 z"
         style="fill:#ff0066;stroke:#000000;stroke-width:0.92751926;stroke-linecap:butt;stroke-linejoin:miter;stroke-miterlimit:4;stroke-opacity:1;stroke-dasharray:none" />
      <path
         sodipodi:nodetypes="ccscsccccc"
         inkscape:connector-curvature="0"
         id="path2985"
         d="m 109.37287,405.52908 c -0.10146,0.003 -0.20547,0.0145 -0.30389,0.0362 3.36207,4.22286 6.71396,15.98775 6.24672,19.46751 -0.43545,3.24295 -2.915,6.49204 -5.9991,5.81371 4.61734,3.7025 8.06555,-1.81253 10.51249,-5.16239 2.17608,-2.97905 -3.64843,-23.48063 -7.89015,-23.3626 z m -8.46401,17.28434 c 0.34976,0.67156 0.85245,0.85846 1.49696,1.09761 -0.55622,-0.53057 -1.05679,-0.86365 -1.49696,-1.09761 z"
         style="fill:#d40055;stroke:none" />
      <path
         inkscape:connector-curvature="0"
         id="path3787"
         d="m 103.2984,407.40591 c 0,0 -11.54729,3.8491 -3.52834,7.37744 8.01896,3.52834 6.73593,7.37744 6.73593,7.37744 l 0.96228,-10.58503 z"
         style="fill:#ff80b2;stroke:none" />
    </g>
    <path
       style="opacity:0.22357728;fill:#53676c;fill-opacity:1;stroke:#000000;stroke-width:0.50613761px;stroke-linecap:butt;stroke-linejoin:miter;stroke-opacity:1"
       d="m 243.85609,379.36707 c -5.29011,5.23436 17.22055,4.86745 41.89582,29.50389 -12.82266,21.71942 -46.27878,28.17617 -38.46798,31.80289 44.78477,17.81404 78.16778,-11.51763 90.88891,-25.70976 6.83869,21.33009 16.51381,14.03983 25.34694,20.32143 -8.71745,-28.96933 -10.38898,-35.17551 -0.8326,-63.12351 -8.803,9.63359 -19.51036,0.0473 -25.44263,20.27029 -44.3574,-29.75278 -69.53098,-28.89426 -93.38846,-13.06523 z"
       id="path3791"
       inkscape:connector-curvature="0"
       sodipodi:nodetypes="cccccccc" />
    <path
       sodipodi:type="arc"
       style="color:#000000;fill:#b7c4c8;fill-opacity:1;fill-rule:nonzero;stroke:none;stroke-width:1.89999998;marker:none;visibility:visible;display:inline;overflow:visible;enable-background:accumulate"
       id="path3793"
       sodipodi:cx="285.30307"
       sodipodi:cy="464.01892"
       sodipodi:rx="13.585861"
       sodipodi:ry="13.208476"
       d="m 298.88893,464.01892 a 13.585861,13.208476 0 1 1 -27.17172,0 13.585861,13.208476 0 1 1 27.17172,0 z"
       transform="matrix(0.48816805,0,0,0.48816805,140.42662,155.83407)" />
    <path
       style="fill:#53676c;fill-opacity:1;stroke:#000000;stroke-width:1.03649568999999997px;stroke-linecap:butt;stroke-linejoin:miter;stroke-opacity:1;opacity:0.22357724"
       d="m 169.66119,348.30047 c -10.7369,10.81551 34.95113,10.05737 85.03248,60.96251 -26.02508,44.87784 -93.92821,58.21912 -78.07528,65.71284 90.89595,36.80832 158.65068,-23.79834 184.46971,-53.12289 13.87993,44.07339 33.51671,29.00985 51.44459,41.98923 -17.69309,-59.85798 -21.08566,-72.68152 -1.68987,-130.42918 -17.86671,19.90544 -39.59856,0.0978 -51.63879,41.88356 -90.02855,-61.47679 -141.12128,-59.70287 -189.54284,-26.99607 z"
       id="path3791-7"
       inkscape:connector-curvature="0"
       sodipodi:nodetypes="cccccccc" />
    <path
       sodipodi:type="arc"
       style="color:#000000;fill:#b7c4c8;fill-opacity:1;fill-rule:nonzero;stroke:none;stroke-width:1.89999998;marker:none;visibility:visible;display:inline;overflow:visible;enable-background:accumulate"
       id="path3793-8"
       sodipodi:cx="285.30307"
       sodipodi:cy="464.01892"
       sodipodi:rx="13.585861"
       sodipodi:ry="13.208476"
       d="m 298.88893,464.01892 a 13.585861,13.208476 0 1 1 -27.17172,0 13.585861,13.208476 0 1 1 27.17172,0 z"
       transform="matrix(1.0977877,0,0,1.0687582,-69.521229,-140.37168)" />
    <path
       style="opacity:0.22357728;fill:#53676c;fill-opacity:1;stroke:#000000;stroke-width:1.61492109px;stroke-linecap:butt;stroke-linejoin:miter;stroke-opacity:1"
       d="m 97.248651,315.55492 c -16.72872,16.8512 54.455909,15.66997 132.485589,94.98316 -40.5486,69.92231 -146.345659,90.70881 -121.64586,102.38446 141.62121,57.34953 247.18706,-37.07921 287.41462,-82.76858 21.62574,68.66893 52.22099,45.19905 80.15368,65.42169 -27.56687,-93.26225 -32.85269,-113.24207 -2.63291,-203.21631 -27.83738,31.01384 -61.69688,0.15238 -80.45627,65.25704 C 252.29775,261.83194 172.69228,264.59581 97.248651,315.55492 z"
       id="path3791-7-4"
       inkscape:connector-curvature="0"
       sodipodi:nodetypes="cccccccc" />
    <path
       sodipodi:type="arc"
       style="color:#000000;fill:#164450;fill-opacity:1;fill-rule:nonzero;stroke:none;stroke-width:1.89999998000000003;marker:none;visibility:visible;display:inline;overflow:visible;enable-background:accumulate;opacity:0.35772358"
       id="path3793-8-7"
       sodipodi:cx="285.30307"
       sodipodi:cy="464.01892"
       sodipodi:rx="13.585861"
       sodipodi:ry="13.208476"
       d="m 298.88893,464.01892 a 13.585861,13.208476 0 1 1 -27.17172,0 13.585861,13.208476 0 1 1 27.17172,0 z"
       transform="matrix(1.7791924,0,0,1.8957103,-311.46669,-565.56458)" />
  </g>
</svg>
