<?xml version="1.0" encoding="UTF-8" standalone="no"?>
<!-- Created with Inkscape (http://www.inkscape.org/) -->

<svg
   xmlns:osb="http://www.openswatchbook.org/uri/2009/osb"
   xmlns:dc="http://purl.org/dc/elements/1.1/"
   xmlns:cc="http://creativecommons.org/ns#"
   xmlns:rdf="http://www.w3.org/1999/02/22-rdf-syntax-ns#"
   xmlns:svg="http://www.w3.org/2000/svg"
   xmlns="http://www.w3.org/2000/svg"
   xmlns:sodipodi="http://sodipodi.sourceforge.net/DTD/sodipodi-0.dtd"
   xmlns:inkscape="http://www.inkscape.org/namespaces/inkscape"
   width="744.09448819"
   height="1052.3622047"
   id="svg2"
   version="1.1"
   inkscape:version="0.48.4 r9939"
   sodipodi:docname="fish1.svg">
  <defs
     id="defs4">
    <linearGradient
       id="linearGradient5267"
       osb:paint="solid">
      <stop
         style="stop-color:#3d5ac8;stop-opacity:1;"
         offset="0"
         id="stop5269" />
    </linearGradient>
    <marker
       inkscape:stockid="Arrow1Send"
       orient="auto"
       refY="0"
       refX="0"
       id="Arrow1Send"
       style="overflow:visible">
      <path
         inkscape:connector-curvature="0"
         id="path7312"
         d="M 0,0 5,-5 -12.5,0 5,5 0,0 z"
         style="fill-rule:evenodd;stroke:#000000;stroke-width:1pt"
         transform="matrix(-0.2,0,0,-0.2,-1.2,0)" />
    </marker>
    <marker
       inkscape:stockid="Arrow1Send"
       orient="auto"
       refY="0"
       refX="0"
       id="Arrow1Send-7"
       style="overflow:visible">
      <path
         inkscape:connector-curvature="0"
         id="path7312-9"
         d="M 0,0 5,-5 -12.5,0 5,5 0,0 z"
         style="fill-rule:evenodd;stroke:#000000;stroke-width:1pt"
         transform="matrix(-0.2,0,0,-0.2,-1.2,0)" />
    </marker>
  </defs>
  <sodipodi:namedview
     id="base"
     pagecolor="#ffffff"
     bordercolor="#666666"
     borderopacity="1.0"
     inkscape:pageopacity="0.0"
     inkscape:pageshadow="2"
     inkscape:zoom="1.75"
     inkscape:cx="260.89325"
     inkscape:cy="616.66162"
     inkscape:document-units="px"
     inkscape:current-layer="layer1"
     showgrid="false"
     inkscape:window-width="1280"
     inkscape:window-height="741"
     inkscape:window-x="0"
     inkscape:window-y="27"
     inkscape:window-maximized="1" />
  <metadata
     id="metadata7">
    <rdf:RDF>
      <cc:Work
         rdf:about="">
        <dc:format>image/svg+xml</dc:format>
        <dc:type
           rdf:resource="http://purl.org/dc/dcmitype/StillImage" />
        <dc:title></dc:title>
      </cc:Work>
    </rdf:RDF>
  </metadata>
  <g
     inkscape:label="Layer 1"
     inkscape:groupmode="layer"
     id="layer1">
    <path
       sodipodi:type="arc"
       style="color:#000000;fill:#c8b7c4;fill-opacity:1;fill-rule:nonzero;stroke:none;stroke-width:1.89999998;marker:none;visibility:visible;display:inline;overflow:visible;enable-background:accumulate"
       id="path3789-2"
       sodipodi:cx="236.21504"
       sodipodi:cy="566.79077"
       sodipodi:rx="31.210611"
       sodipodi:ry="5.9135895"
       d="m 267.42565,566.79077 a 31.210611,5.9135895 0 1 1 -62.42122,0 31.210611,5.9135895 0 1 1 62.42122,0 z"
       transform="matrix(4.2044983,0,0,1.8581559,-644.75923,-555.68945)" />
    <path
       sodipodi:type="arc"
       style="color:#000000;fill:#c8b7c4;fill-opacity:1;fill-rule:nonzero;stroke:none;stroke-width:1.89999998;marker:none;visibility:visible;display:inline;overflow:visible;enable-background:accumulate"
       id="path3789-8"
       sodipodi:cx="236.21504"
       sodipodi:cy="566.79077"
       sodipodi:rx="31.210611"
       sodipodi:ry="5.9135895"
       d="m 267.42565,566.79077 a 31.210611,5.9135895 0 1 1 -62.42122,0 31.210611,5.9135895 0 1 1 62.42122,0 z"
       transform="matrix(1.2444238,0,0,0.71563507,-172.99578,93.45373)" />
    <path
       style="fill:#ff0066;stroke:#000000;stroke-width:0.92751926;stroke-linecap:butt;stroke-linejoin:miter;stroke-miterlimit:4;stroke-opacity:1;stroke-dasharray:none"
       d="m 215.96937,408.38124 c -5.27687,6.38779 -11.10919,2.22184 -10.55373,14.44195 0.55545,12.22011 1.48744,-0.4194 9.44281,13.33103 7.95538,13.75043 16.34833,2.71981 17.21925,-3.33276 0.87093,-6.05257 -10.83146,-30.82801 -16.10833,-24.44022 z"
       id="path2985-2"
       inkscape:connector-curvature="0"
       sodipodi:nodetypes="zzzzz" />
    <path
       style="fill:#d40055;stroke:none"
       d="m 219.37287,415.52908 c -0.10146,0.003 -0.20547,0.0145 -0.30389,0.0362 3.36207,4.22286 6.71396,15.98775 6.24672,19.46751 -0.43545,3.24295 -2.915,6.49204 -5.9991,5.81371 4.61734,3.7025 8.06555,-1.81253 10.51249,-5.16239 2.17608,-2.97905 -3.64843,-23.48063 -7.89015,-23.3626 z m -8.46401,17.28434 c 0.34976,0.67156 0.85245,0.85846 1.49696,1.09761 -0.55622,-0.53057 -1.05679,-0.86365 -1.49696,-1.09761 z"
       id="path2985"
       inkscape:connector-curvature="0"
       sodipodi:nodetypes="ccscsccccc" />
    <path
       style="fill:#ff80b2;stroke:none"
       d="m 213.2984,417.40591 c 0,0 -11.54729,3.8491 -3.52834,7.37744 8.01896,3.52834 6.73593,7.37744 6.73593,7.37744 l 0.96228,-10.58503 z"
       id="path3787"
       inkscape:connector-curvature="0" />
    <path
       style="fill:#373e48;fill-opacity:1;stroke:#000000;stroke-width:1.03649569px;stroke-linecap:butt;stroke-linejoin:miter;stroke-opacity:1"
       d="m 220.69022,385.14141 c -2.16547,12.5298 19.52256,11.20023 46.74677,38.10537 -18.02508,30.59213 -62.49963,27.36198 -46.6467,34.8557 83.46738,75.09403 176.36496,3.0588 202.18399,-26.26575 13.87993,44.07339 33.51671,29.00985 51.44459,41.98923 -17.69309,-59.85798 -21.08566,-72.68152 -1.68987,-130.42918 -17.86671,19.90544 -39.59856,0.0978 -51.63879,41.88356 -90.02855,-61.47679 -191.407,-64.84573 -200.39999,-0.13893 z"
       id="path3791-7"
       inkscape:connector-curvature="0"
       sodipodi:nodetypes="cccccccc" />
    <path
       sodipodi:type="arc"
       style="color:#000000;fill:#b7c4c8;fill-opacity:1;fill-rule:nonzero;stroke:none;stroke-width:1.89999998;marker:none;visibility:visible;display:inline;overflow:visible;enable-background:accumulate"
       id="path3793-8"
       sodipodi:cx="285.30307"
       sodipodi:cy="464.01892"
       sodipodi:rx="13.585861"
       sodipodi:ry="13.208476"
       d="m 298.88893,464.01892 a 13.585861,13.208476 0 1 1 -27.17172,0 13.585861,13.208476 0 1 1 27.17172,0 z"
       transform="matrix(1.0977877,0,0,1.0687582,-33.920765,-119.53074)" />
    <path
       sodipodi:type="arc"
       style="color:#000000;fill:#c8b7c4;fill-opacity:1;fill-rule:nonzero;stroke:none;stroke-width:1.89999998;marker:none;visibility:visible;display:inline;overflow:visible;enable-background:accumulate"
       id="path3789-2-6"
       sodipodi:cx="236.21504"
       sodipodi:cy="566.79077"
       sodipodi:rx="31.210611"
       sodipodi:ry="5.9135895"
       d="m 267.42565,566.79077 a 31.210611,5.9135895 0 1 1 -62.42122,0 31.210611,5.9135895 0 1 1 62.42122,0 z"
       transform="matrix(5.7216253,0,0,2.6377623,-755.52686,-929.93301)" />
    <g
       transform="matrix(-0.29351839,0,0,0.29351839,284.49116,275.04131)"
       id="g9604">
      <path
         inkscape:connector-curvature="0"
         id="path8705-9"
         d="m 389.14185,629.40023 c -62.77349,-33.36161 -62.77349,-33.36161 -62.77349,-33.36161 l -3.09902,-60.46218 -54.56202,-22.79402 56.39536,18.27515 5.1454,58.66109 69.33873,33.39385"
         style="fill:#a02c2c;stroke:#000000;stroke-width:2;stroke-linecap:butt;stroke-linejoin:miter;stroke-miterlimit:4;stroke-opacity:1;stroke-dasharray:none" />
      <path
         sodipodi:nodetypes="zzzz"
         inkscape:connector-curvature="0"
         id="path8611-6-0-5"
         d="m 610.22754,699.983 c 6.27364,-9.60895 10.54312,-10.29146 18.82878,-2.27329 8.28567,8.01816 1.08863,49.64753 -4.38035,50.02363 -5.46897,0.3761 -20.72208,-38.14139 -14.44843,-47.75034 z"
         style="fill:#782121;stroke:#000000;stroke-width:2;stroke-linecap:butt;stroke-linejoin:miter;stroke-miterlimit:4;stroke-opacity:1;stroke-dasharray:none" />
      <path
         sodipodi:nodetypes="zzzz"
         inkscape:connector-curvature="0"
         id="path8611-6-0"
         d="m 574.37892,700.31333 c 6.27364,-9.60895 10.54312,-10.29146 18.82878,-2.27329 8.28567,8.01816 1.08863,49.64753 -4.38035,50.02363 -5.46897,0.3761 -20.72208,-38.14139 -14.44843,-47.75034 z"
         style="fill:#782121;stroke:#000000;stroke-width:2;stroke-linecap:butt;stroke-linejoin:miter;stroke-miterlimit:4;stroke-opacity:1;stroke-dasharray:none" />
      <path
         sodipodi:nodetypes="zzzz"
         inkscape:connector-curvature="0"
         id="path8611-6"
         d="m 536.03477,705.20938 c 6.27364,-9.60895 10.54312,-10.29146 18.82878,-2.27329 8.28567,8.01816 1.08863,49.64753 -4.38035,50.02363 -5.46897,0.3761 -20.72208,-38.14139 -14.44843,-47.75034 z"
         style="fill:#782121;stroke:#000000;stroke-width:2;stroke-linecap:butt;stroke-linejoin:miter;stroke-miterlimit:4;stroke-opacity:1;stroke-dasharray:none" />
      <path
         sodipodi:nodetypes="ccccccccccc"
         inkscape:connector-curvature="0"
         id="path8585"
         d="m 540.26877,606.41644 c 8.39397,-6.81505 35.93716,-34.18231 35.29708,-6.59872 5.77832,-13.68695 42.13438,-1.17861 28.60255,10.50151 16.78434,-8.10628 38.13362,9.27778 18.89116,21.08439 20.32474,-5.74558 32.29726,23.03759 22.24573,28.80666 23.28134,2.24178 48.01743,3.02882 62.48788,14.08149 -48.02256,11.68347 -74.25096,-4.60674 -49.347,56.27893 l -31.02181,-43.05138 c -6.63486,9.22305 -20.63397,28.8251 -34.46624,7.73602 5.03911,17.89625 -28.70447,25.08464 -34.46626,7.73602 3.51468,27.38055 -25.33333,1.40459 -35.73283,-3.54841"
         style="fill:#c83737;stroke:#000000;stroke-width:3;stroke-linecap:butt;stroke-linejoin:miter;stroke-miterlimit:4;stroke-opacity:1;stroke-dasharray:none" />
      <path
         sodipodi:nodetypes="zzzz"
         inkscape:connector-curvature="0"
         id="path8611"
         d="m 605.62059,698.68628 c 8.5269,-7.68001 12.82869,-7.24543 18.78248,2.62855 5.9538,9.87398 -11.67264,48.26813 -17.05533,47.22994 -5.38268,-1.03819 -10.25405,-42.17849 -1.72715,-49.85849 z"
         style="fill:#c83737;stroke:#000000;stroke-width:2;stroke-linecap:butt;stroke-linejoin:miter;stroke-miterlimit:4;stroke-opacity:1;stroke-dasharray:none" />
      <path
         sodipodi:nodetypes="cscscc"
         inkscape:connector-curvature="0"
         id="path8703"
         d="m 542.24138,604.08632 c 0,0 -4.31035,-12.93103 -23.27586,-17.24138 C 500,582.5346 500,582.5346 500,582.5346 c 0,0 -52.58621,-8.62069 -50,1.72413 2.58621,10.34483 -75,37.06897 -75,37.06897 43.9556,42.54857 92.09214,76.73525 154.31034,82.75862"
         style="fill:#c83737;stroke:#000000;stroke-width:3;stroke-linecap:butt;stroke-linejoin:miter;stroke-miterlimit:4;stroke-opacity:1;stroke-dasharray:none" />
      <path
         transform="matrix(1.3636448,0,0,1.2649426,-157.05706,-152.19764)"
         d="m 459.48277,590.72424 c 0,8.33188 -5.98241,15.08621 -13.36207,15.08621 -7.37967,0 -13.36207,-6.75433 -13.36207,-15.08621 0,-8.33188 5.9824,-15.0862 13.36207,-15.0862 7.37966,0 13.36207,6.75432 13.36207,15.0862 z"
         sodipodi:ry="15.086206"
         sodipodi:rx="13.362069"
         sodipodi:cy="590.72424"
         sodipodi:cx="446.1207"
         id="path8587"
         style="color:#000000;fill:#f4d7d7;fill-opacity:1;fill-rule:nonzero;stroke:#000000;stroke-width:1.52280378;stroke-linecap:round;stroke-linejoin:round;stroke-miterlimit:4;stroke-opacity:1;stroke-dasharray:none;stroke-dashoffset:0;marker:none;visibility:visible;display:inline;overflow:visible;enable-background:accumulate"
         sodipodi:type="arc" />
      <path
         d="m 523.27587,596.75873 c 0,10.71242 -8.10519,19.39655 -18.10345,19.39655 -9.99825,0 -18.10344,-8.68413 -18.10344,-19.39655 0,-10.71242 8.10519,-19.39655 18.10344,-19.39655 9.99826,0 18.10345,8.68413 18.10345,19.39655 z"
         sodipodi:ry="19.396551"
         sodipodi:rx="18.103449"
         sodipodi:cy="596.75873"
         sodipodi:cx="505.17242"
         id="path8589"
         style="color:#000000;fill:#f4d7d7;fill-opacity:1;fill-rule:nonzero;stroke:#000000;stroke-width:2;stroke-linecap:round;stroke-linejoin:round;stroke-miterlimit:4;stroke-opacity:1;stroke-dasharray:none;stroke-dashoffset:0;marker:none;visibility:visible;display:inline;overflow:visible;enable-background:accumulate"
         sodipodi:type="arc" />
      <path
         d="m 456.89655,595.89667 c 0,3.5708 -3.08769,6.46551 -6.89655,6.46551 -3.80886,0 -6.89655,-2.89471 -6.89655,-6.46551 0,-3.57081 3.08769,-6.46552 6.89655,-6.46552 3.80886,0 6.89655,2.89471 6.89655,6.46552 z"
         sodipodi:ry="6.465517"
         sodipodi:rx="6.8965516"
         sodipodi:cy="595.89667"
         sodipodi:cx="450"
         id="path8591"
         style="color:#000000;fill:#000000;fill-opacity:1;fill-rule:nonzero;stroke:#000000;stroke-width:2;stroke-linecap:round;stroke-linejoin:round;stroke-miterlimit:4;stroke-opacity:1;stroke-dasharray:none;stroke-dashoffset:0;marker:none;visibility:visible;display:inline;overflow:visible;enable-background:accumulate"
         sodipodi:type="arc" />
      <path
         d="m 456.89655,595.89667 c 0,3.5708 -3.08769,6.46551 -6.89655,6.46551 -3.80886,0 -6.89655,-2.89471 -6.89655,-6.46551 0,-3.57081 3.08769,-6.46552 6.89655,-6.46552 3.80886,0 6.89655,2.89471 6.89655,6.46552 z"
         sodipodi:ry="6.465517"
         sodipodi:rx="6.8965516"
         sodipodi:cy="595.89667"
         sodipodi:cx="450"
         id="path8591-7"
         style="color:#000000;fill:#000000;fill-opacity:1;fill-rule:nonzero;stroke:#000000;stroke-width:2;stroke-linecap:round;stroke-linejoin:round;stroke-miterlimit:4;stroke-opacity:1;stroke-dasharray:none;stroke-dashoffset:0;marker:none;visibility:visible;display:inline;overflow:visible;enable-background:accumulate"
         sodipodi:type="arc"
         transform="translate(54.310345,1.2931013)" />
      <path
         sodipodi:nodetypes="zzzz"
         inkscape:connector-curvature="0"
         id="path8611-3"
         d="m 565.66593,697.69387 c 8.38553,-7.83413 12.69452,-7.47802 18.82726,2.28581 6.13276,9.76384 -10.79105,48.47284 -16.19177,47.53292 -5.40071,-0.93993 -11.02102,-41.98461 -2.63549,-49.81873 z"
         style="fill:#c83737;stroke:#000000;stroke-width:2;stroke-linecap:butt;stroke-linejoin:miter;stroke-miterlimit:4;stroke-opacity:1;stroke-dasharray:none" />
      <path
         sodipodi:nodetypes="zzzz"
         inkscape:connector-curvature="0"
         id="path8611-3-1"
         d="m 521.6928,700.08454 c 7.38019,-8.78768 11.70069,-8.95351 18.96552,0 7.26483,8.95351 -4.8702,49.42008 -10.34483,49.13793 -5.47463,-0.28215 -16.00088,-40.35025 -8.62069,-49.13793 z"
         style="fill:#c83737;stroke:#000000;stroke-width:2;stroke-linecap:butt;stroke-linejoin:miter;stroke-miterlimit:4;stroke-opacity:1;stroke-dasharray:none" />
      <path
         inkscape:connector-curvature="0"
         id="path8705"
         d="M 399.13793,629.08632 C 354.31034,573.91391 354.31034,573.91391 354.31034,573.91391 L 375,517.01736 l -41.37931,-42.24138 44.82759,38.7931 -18.10345,56.03448 50.86207,57.75862"
         style="fill:#c83737;stroke:#000000;stroke-width:2;stroke-linecap:butt;stroke-linejoin:miter;stroke-miterlimit:4;stroke-opacity:1;stroke-dasharray:none" />
      <path
         d="m 543.10343,693.74152 c 0,7.14161 -4.43856,12.93103 -9.91379,12.93103 -5.47524,0 -9.9138,-5.78942 -9.9138,-12.93103 0,-7.14162 4.43856,-12.93104 9.9138,-12.93104 5.47523,0 9.91379,5.78942 9.91379,12.93104 z"
         sodipodi:ry="12.931034"
         sodipodi:rx="9.9137936"
         sodipodi:cy="693.74152"
         sodipodi:cx="533.18964"
         id="path8727"
         style="color:#000000;fill:#c83737;fill-opacity:1;fill-rule:nonzero;stroke:none;stroke-width:2;marker:none;visibility:visible;display:inline;overflow:visible;enable-background:accumulate"
         sodipodi:type="arc" />
      <path
         d="m 543.10343,693.74152 c 0,7.14161 -4.43856,12.93103 -9.91379,12.93103 -5.47524,0 -9.9138,-5.78942 -9.9138,-12.93103 0,-7.14162 4.43856,-12.93104 9.9138,-12.93104 5.47523,0 9.91379,5.78942 9.91379,12.93104 z"
         sodipodi:ry="12.931034"
         sodipodi:rx="9.9137936"
         sodipodi:cy="693.74152"
         sodipodi:cx="533.18964"
         id="path8727-3"
         style="color:#000000;fill:#c83737;fill-opacity:1;fill-rule:nonzero;stroke:none;stroke-width:2;marker:none;visibility:visible;display:inline;overflow:visible;enable-background:accumulate"
         sodipodi:type="arc"
         transform="translate(40.086226,-2.58623)" />
      <path
         d="m 543.10343,693.74152 c 0,7.14161 -4.43856,12.93103 -9.91379,12.93103 -5.47524,0 -9.9138,-5.78942 -9.9138,-12.93103 0,-7.14162 4.43856,-12.93104 9.9138,-12.93104 5.47523,0 9.91379,5.78942 9.91379,12.93104 z"
         sodipodi:ry="12.931034"
         sodipodi:rx="9.9137936"
         sodipodi:cy="693.74152"
         sodipodi:cx="533.18964"
         id="path8727-3-6"
         style="color:#000000;fill:#c83737;fill-opacity:1;fill-rule:nonzero;stroke:none;stroke-width:2;marker:none;visibility:visible;display:inline;overflow:visible;enable-background:accumulate"
         sodipodi:type="arc"
         transform="translate(76.293123,-4.310368)" />
    </g>
    <path
       style="fill:none;stroke:#000000;stroke-width:3.7704916;stroke-linecap:butt;stroke-linejoin:miter;stroke-miterlimit:4;stroke-opacity:1;stroke-dasharray:none;marker-end:url(#Arrow1Send)"
       d="m 209.90677,437.63345 -15.88778,15.08079 -4.93201,23.51697"
       id="path7291"
       inkscape:connector-curvature="0"
       sodipodi:nodetypes="ccc" />
    <path
       style="fill:#ff6600;stroke:#000000;stroke-width:0.92751926;stroke-linecap:butt;stroke-linejoin:miter;stroke-miterlimit:4;stroke-opacity:1;stroke-dasharray:none"
       d="m 140.75256,401.78894 c -5.27687,-6.38779 -11.10919,-2.22184 -10.55373,-14.44195 0.55545,-12.22011 1.48744,0.4194 9.44281,-13.33103 7.95538,-13.75043 16.34833,-2.71981 17.21925,3.33276 0.87093,6.05257 -10.83146,30.82801 -16.10833,24.44022 z"
       id="path2985-2-9"
       inkscape:connector-curvature="0"
       sodipodi:nodetypes="zzzzz" />
    <path
       style="fill:#d45500;stroke:none"
       d="m 140.15445,394.81297 c -0.0975,-0.0283 -0.19531,-0.0654 -0.28517,-0.11109 4.31177,-3.24727 10.50085,-13.79919 10.91918,-17.28517 0.38985,-3.24875 -1.19783,-7.01491 -4.35356,-7.12987 5.3969,-2.42936 7.35545,3.77304 8.88634,7.62861 1.36144,3.42879 -9.4077,21.82078 -13.48495,20.64514 z m -3.86987,-18.85237 c 0.50667,-0.56268 1.04014,-0.61786 1.72399,-0.68813 -0.67129,0.37452 -1.23928,0.57175 -1.72399,0.68813 z"
       id="path2985-5"
       inkscape:connector-curvature="0"
       sodipodi:nodetypes="ccscsccccc" />
    <path
       style="fill:#ffb380;stroke:none"
       d="m 138.24859,390.50808 c 0,0 -11.54729,-3.8491 -3.52834,-7.37744 8.01896,-3.52834 6.73593,-7.37744 6.73593,-7.37744 l 0.96228,10.58503 z"
       id="path3787-4"
       inkscape:connector-curvature="0" />
    <path
       style="fill:none;stroke:#000000;stroke-width:3.7704916;stroke-linecap:butt;stroke-linejoin:miter;stroke-miterlimit:4;stroke-opacity:1;stroke-dasharray:none;marker-end:url(#Arrow1Send)"
       d="m 159.03068,389.08422 21.69984,2.99476 17.71407,16.23528"
       id="path7291-8"
       inkscape:connector-curvature="0"
       sodipodi:nodetypes="ccc" />
  </g>
</svg>
