<?xml version="1.0" encoding="UTF-8" standalone="no"?>
<!-- Created with Inkscape (http://www.inkscape.org/) -->

<svg
   xmlns:dc="http://purl.org/dc/elements/1.1/"
   xmlns:cc="http://creativecommons.org/ns#"
   xmlns:rdf="http://www.w3.org/1999/02/22-rdf-syntax-ns#"
   xmlns:svg="http://www.w3.org/2000/svg"
   xmlns="http://www.w3.org/2000/svg"
   xmlns:sodipodi="http://sodipodi.sourceforge.net/DTD/sodipodi-0.dtd"
   xmlns:inkscape="http://www.inkscape.org/namespaces/inkscape"
   width="744.09448819"
   height="1052.3622047"
   id="svg7995"
   version="1.1"
   inkscape:version="0.48.4 r9939"
   sodipodi:docname="shrimp.svg">
  <defs
     id="defs7997" />
  <sodipodi:namedview
     id="base"
     pagecolor="#ffffff"
     bordercolor="#666666"
     borderopacity="1.0"
     inkscape:pageopacity="0.0"
     inkscape:pageshadow="2"
     inkscape:zoom="1.16"
     inkscape:cx="520.77965"
     inkscape:cy="462.39929"
     inkscape:document-units="px"
     inkscape:current-layer="layer1"
     showgrid="false"
     inkscape:window-width="1280"
     inkscape:window-height="741"
     inkscape:window-x="0"
     inkscape:window-y="27"
     inkscape:window-maximized="1" />
  <metadata
     id="metadata8000">
    <rdf:RDF>
      <cc:Work
         rdf:about="">
        <dc:format>image/svg+xml</dc:format>
        <dc:type
           rdf:resource="http://purl.org/dc/dcmitype/StillImage" />
        <dc:title></dc:title>
      </cc:Work>
    </rdf:RDF>
  </metadata>
  <g
     inkscape:label="Layer 1"
     inkscape:groupmode="layer"
     id="layer1">
    <path
       sodipodi:type="arc"
       style="color:#000000;fill:#c8b7c4;fill-opacity:1;fill-rule:nonzero;stroke:none;stroke-width:1.89999998;marker:none;visibility:visible;display:inline;overflow:visible;enable-background:accumulate"
       id="path3789"
       sodipodi:cx="236.21504"
       sodipodi:cy="566.79077"
       sodipodi:rx="31.210611"
       sodipodi:ry="5.9135895"
       d="m 267.42565,566.79077 a 31.210611,5.9135895 0 1 1 -62.42122,0 31.210611,5.9135895 0 1 1 62.42122,0 z"
       transform="matrix(4.7921764,0,0,1.4445231,-581.5531,-59.052619)" />
    <g
       id="g9604">
      <path
         inkscape:connector-curvature="0"
         id="path8705-9"
         d="m 389.14185,629.40023 c -62.77349,-33.36161 -62.77349,-33.36161 -62.77349,-33.36161 l -3.09902,-60.46218 -54.56202,-22.79402 56.39536,18.27515 5.1454,58.66109 69.33873,33.39385"
         style="fill:#a02c2c;stroke:#000000;stroke-width:2;stroke-linecap:butt;stroke-linejoin:miter;stroke-miterlimit:4;stroke-opacity:1;stroke-dasharray:none" />
      <path
         sodipodi:nodetypes="zzzz"
         inkscape:connector-curvature="0"
         id="path8611-6-0-5"
         d="m 610.22754,699.983 c 6.27364,-9.60895 10.54312,-10.29146 18.82878,-2.27329 8.28567,8.01816 1.08863,49.64753 -4.38035,50.02363 -5.46897,0.3761 -20.72208,-38.14139 -14.44843,-47.75034 z"
         style="fill:#782121;stroke:#000000;stroke-width:2;stroke-linecap:butt;stroke-linejoin:miter;stroke-miterlimit:4;stroke-opacity:1;stroke-dasharray:none" />
      <path
         sodipodi:nodetypes="zzzz"
         inkscape:connector-curvature="0"
         id="path8611-6-0"
         d="m 574.37892,700.31333 c 6.27364,-9.60895 10.54312,-10.29146 18.82878,-2.27329 8.28567,8.01816 1.08863,49.64753 -4.38035,50.02363 -5.46897,0.3761 -20.72208,-38.14139 -14.44843,-47.75034 z"
         style="fill:#782121;stroke:#000000;stroke-width:2;stroke-linecap:butt;stroke-linejoin:miter;stroke-miterlimit:4;stroke-opacity:1;stroke-dasharray:none" />
      <path
         sodipodi:nodetypes="zzzz"
         inkscape:connector-curvature="0"
         id="path8611-6"
         d="m 536.03477,705.20938 c 6.27364,-9.60895 10.54312,-10.29146 18.82878,-2.27329 8.28567,8.01816 1.08863,49.64753 -4.38035,50.02363 -5.46897,0.3761 -20.72208,-38.14139 -14.44843,-47.75034 z"
         style="fill:#782121;stroke:#000000;stroke-width:2;stroke-linecap:butt;stroke-linejoin:miter;stroke-miterlimit:4;stroke-opacity:1;stroke-dasharray:none" />
      <path
         sodipodi:nodetypes="ccccccccccc"
         inkscape:connector-curvature="0"
         id="path8585"
         d="m 540.26877,606.41644 c 8.39397,-6.81505 35.93716,-34.18231 35.29708,-6.59872 5.77832,-13.68695 42.13438,-1.17861 28.60255,10.50151 16.78434,-8.10628 38.13362,9.27778 18.89116,21.08439 20.32474,-5.74558 32.29726,23.03759 22.24573,28.80666 23.28134,2.24178 48.01743,3.02882 62.48788,14.08149 -48.02256,11.68347 -74.25096,-4.60674 -49.347,56.27893 l -31.02181,-43.05138 c -6.63486,9.22305 -20.63397,28.8251 -34.46624,7.73602 5.03911,17.89625 -28.70447,25.08464 -34.46626,7.73602 3.51468,27.38055 -25.33333,1.40459 -35.73283,-3.54841"
         style="fill:#c83737;stroke:#000000;stroke-width:3;stroke-linecap:butt;stroke-linejoin:miter;stroke-miterlimit:4;stroke-opacity:1;stroke-dasharray:none" />
      <path
         sodipodi:nodetypes="zzzz"
         inkscape:connector-curvature="0"
         id="path8611"
         d="m 605.62059,698.68628 c 8.5269,-7.68001 12.82869,-7.24543 18.78248,2.62855 5.9538,9.87398 -11.67264,48.26813 -17.05533,47.22994 -5.38268,-1.03819 -10.25405,-42.17849 -1.72715,-49.85849 z"
         style="fill:#c83737;stroke:#000000;stroke-width:2;stroke-linecap:butt;stroke-linejoin:miter;stroke-miterlimit:4;stroke-opacity:1;stroke-dasharray:none" />
      <path
         sodipodi:nodetypes="cscscc"
         inkscape:connector-curvature="0"
         id="path8703"
         d="m 542.24138,604.08632 c 0,0 -4.31035,-12.93103 -23.27586,-17.24138 C 500,582.5346 500,582.5346 500,582.5346 c 0,0 -52.58621,-8.62069 -50,1.72413 2.58621,10.34483 -75,37.06897 -75,37.06897 43.9556,42.54857 92.09214,76.73525 154.31034,82.75862"
         style="fill:#c83737;stroke:#000000;stroke-width:3;stroke-linecap:butt;stroke-linejoin:miter;stroke-miterlimit:4;stroke-opacity:1;stroke-dasharray:none" />
      <path
         transform="matrix(1.3636448,0,0,1.2649426,-157.05706,-152.19764)"
         d="m 459.48277,590.72424 a 13.362069,15.086206 0 1 1 -26.72414,0 13.362069,15.086206 0 1 1 26.72414,0 z"
         sodipodi:ry="15.086206"
         sodipodi:rx="13.362069"
         sodipodi:cy="590.72424"
         sodipodi:cx="446.1207"
         id="path8587"
         style="color:#000000;fill:#f4d7d7;fill-opacity:1;fill-rule:nonzero;stroke:#000000;stroke-width:1.52280381;stroke-linecap:round;stroke-linejoin:round;stroke-miterlimit:4;stroke-opacity:1;stroke-dasharray:none;stroke-dashoffset:0;marker:none;visibility:visible;display:inline;overflow:visible;enable-background:accumulate"
         sodipodi:type="arc" />
      <path
         d="m 523.27587,596.75873 a 18.103449,19.396551 0 1 1 -36.20689,0 18.103449,19.396551 0 1 1 36.20689,0 z"
         sodipodi:ry="19.396551"
         sodipodi:rx="18.103449"
         sodipodi:cy="596.75873"
         sodipodi:cx="505.17242"
         id="path8589"
         style="color:#000000;fill:#f4d7d7;fill-opacity:1;fill-rule:nonzero;stroke:#000000;stroke-width:2;stroke-linecap:round;stroke-linejoin:round;stroke-miterlimit:4;stroke-opacity:1;stroke-dasharray:none;stroke-dashoffset:0;marker:none;visibility:visible;display:inline;overflow:visible;enable-background:accumulate"
         sodipodi:type="arc" />
      <path
         d="m 456.89655,595.89667 a 6.8965516,6.465517 0 1 1 -13.7931,0 6.8965516,6.465517 0 1 1 13.7931,0 z"
         sodipodi:ry="6.465517"
         sodipodi:rx="6.8965516"
         sodipodi:cy="595.89667"
         sodipodi:cx="450"
         id="path8591"
         style="color:#000000;fill:#000000;fill-opacity:1;fill-rule:nonzero;stroke:#000000;stroke-width:2;stroke-linecap:round;stroke-linejoin:round;stroke-miterlimit:4;stroke-opacity:1;stroke-dasharray:none;stroke-dashoffset:0;marker:none;visibility:visible;display:inline;overflow:visible;enable-background:accumulate"
         sodipodi:type="arc" />
      <path
         d="m 456.89655,595.89667 a 6.8965516,6.465517 0 1 1 -13.7931,0 6.8965516,6.465517 0 1 1 13.7931,0 z"
         sodipodi:ry="6.465517"
         sodipodi:rx="6.8965516"
         sodipodi:cy="595.89667"
         sodipodi:cx="450"
         id="path8591-7"
         style="color:#000000;fill:#000000;fill-opacity:1;fill-rule:nonzero;stroke:#000000;stroke-width:2;stroke-linecap:round;stroke-linejoin:round;stroke-miterlimit:4;stroke-opacity:1;stroke-dasharray:none;stroke-dashoffset:0;marker:none;visibility:visible;display:inline;overflow:visible;enable-background:accumulate"
         sodipodi:type="arc"
         transform="translate(54.310345,1.2931013)" />
      <path
         sodipodi:nodetypes="zzzz"
         inkscape:connector-curvature="0"
         id="path8611-3"
         d="m 565.66593,697.69387 c 8.38553,-7.83413 12.69452,-7.47802 18.82726,2.28581 6.13276,9.76384 -10.79105,48.47284 -16.19177,47.53292 -5.40071,-0.93993 -11.02102,-41.98461 -2.63549,-49.81873 z"
         style="fill:#c83737;stroke:#000000;stroke-width:2;stroke-linecap:butt;stroke-linejoin:miter;stroke-miterlimit:4;stroke-opacity:1;stroke-dasharray:none" />
      <path
         sodipodi:nodetypes="zzzz"
         inkscape:connector-curvature="0"
         id="path8611-3-1"
         d="m 521.6928,700.08454 c 7.38019,-8.78768 11.70069,-8.95351 18.96552,0 7.26483,8.95351 -4.8702,49.42008 -10.34483,49.13793 -5.47463,-0.28215 -16.00088,-40.35025 -8.62069,-49.13793 z"
         style="fill:#c83737;stroke:#000000;stroke-width:2;stroke-linecap:butt;stroke-linejoin:miter;stroke-miterlimit:4;stroke-opacity:1;stroke-dasharray:none" />
      <path
         inkscape:connector-curvature="0"
         id="path8705"
         d="M 399.13793,629.08632 C 354.31034,573.91391 354.31034,573.91391 354.31034,573.91391 L 375,517.01736 l -41.37931,-42.24138 44.82759,38.7931 -18.10345,56.03448 50.86207,57.75862"
         style="fill:#c83737;stroke:#000000;stroke-width:2;stroke-linecap:butt;stroke-linejoin:miter;stroke-opacity:1;stroke-miterlimit:4;stroke-dasharray:none" />
      <path
         d="m 543.10343,693.74152 a 9.9137936,12.931034 0 1 1 -19.82759,0 9.9137936,12.931034 0 1 1 19.82759,0 z"
         sodipodi:ry="12.931034"
         sodipodi:rx="9.9137936"
         sodipodi:cy="693.74152"
         sodipodi:cx="533.18964"
         id="path8727"
         style="color:#000000;fill:#c83737;fill-opacity:1;fill-rule:nonzero;stroke:none;stroke-width:2;stroke-linecap:round;stroke-linejoin:round;stroke-miterlimit:4;stroke-opacity:1;stroke-dasharray:none;stroke-dashoffset:0;marker:none;visibility:visible;display:inline;overflow:visible;enable-background:accumulate"
         sodipodi:type="arc" />
      <path
         d="m 543.10343,693.74152 a 9.9137936,12.931034 0 1 1 -19.82759,0 9.9137936,12.931034 0 1 1 19.82759,0 z"
         sodipodi:ry="12.931034"
         sodipodi:rx="9.9137936"
         sodipodi:cy="693.74152"
         sodipodi:cx="533.18964"
         id="path8727-3"
         style="color:#000000;fill:#c83737;fill-opacity:1;fill-rule:nonzero;stroke:none;stroke-width:2;marker:none;visibility:visible;display:inline;overflow:visible;enable-background:accumulate"
         sodipodi:type="arc"
         transform="translate(40.086226,-2.58623)" />
      <path
         d="m 543.10343,693.74152 a 9.9137936,12.931034 0 1 1 -19.82759,0 9.9137936,12.931034 0 1 1 19.82759,0 z"
         sodipodi:ry="12.931034"
         sodipodi:rx="9.9137936"
         sodipodi:cy="693.74152"
         sodipodi:cx="533.18964"
         id="path8727-3-6"
         style="color:#000000;fill:#c83737;fill-opacity:1;fill-rule:nonzero;stroke:none;stroke-width:2;marker:none;visibility:visible;display:inline;overflow:visible;enable-background:accumulate"
         sodipodi:type="arc"
         transform="translate(76.293123,-4.310368)" />
    </g>
  </g>
</svg>
